<svg t="1703476058012" class="icon" viewBox="0 0 1024 1024" version="1.1" xmlns="http://www.w3.org/2000/svg" p-id="21357" width="16" height="16"><path d="M896 0l128 0 0 128-128 0L896 0 896 0z" p-id="21358"></path><path d="M0 0l704 0 0 128L0 128 0 0 0 0z" p-id="21359"></path><path d="M896 448l128 0 0 128-128 0L896 448 896 448z" p-id="21360"></path><path d="M0 448l704 0 0 128L0 576 0 448 0 448z" p-id="21361"></path><path d="M896 896l128 0 0 128-128 0L896 896 896 896z" p-id="21362"></path><path d="M0 896l704 0 0 128L0 1024 0 896 0 896z" p-id="21363"></path></svg>