<?xml version="1.0" encoding="UTF-8"?>
<svg width="21px" height="21px" viewBox="0 0 21 21" version="1.1" xmlns="http://www.w3.org/2000/svg" xmlns:xlink="http://www.w3.org/1999/xlink">
    <title>编组</title>
    <g id="2023.3.14" stroke="none" stroke-width="1" fill="none" fill-rule="evenodd">
        <g id="6动态备份-5" transform="translate(-917, -1471)" fill="#333333" fill-rule="nonzero">
            <g id="编组" transform="translate(917, 1471)">
                <path d="M19.0731563,9.03659375 L11.0365625,9.03659375 L11.0365625,1 C11.0365625,0.44771875 10.5888437,0 10.0365625,0 C9.48428125,0 9.0365625,0.44771875 9.0365625,1 L9.0365625,9.03659375 L1,9.03659375 C0.44771875,9.03659375 -8.8817842e-16,9.4843125 -8.8817842e-16,10.0365937 C-8.8817842e-16,10.588875 0.44771875,11.0365937 1,11.0365937 L9.0365625,11.0365937 L9.0365625,19.0731563 C9.0365625,19.6254375 9.48428125,20.0731563 10.0365625,20.0731563 C10.5888437,20.0731563 11.0365625,19.6254375 11.0365625,19.0731563 L11.0365625,11.0365937 L19.0731563,11.0365937 C19.6254375,11.0365937 20.0731563,10.588875 20.0731563,10.0365937 C20.0731563,9.4843125 19.6254375,9.03659375 19.0731563,9.03659375 Z" id="路径"></path>
            </g>
        </g>
    </g>
</svg>