<svg version="1.1" id="Layer_1" xmlns="http://www.w3.org/2000/svg" xmlns:xlink="http://www.w3.org/1999/xlink" x="0px" y="0px"
	 width="100%" viewBox="0 0 1645 1645" enable-background="new 0 0 1645 1645" xml:space="preserve">
<path fill="#FFFFFF" opacity="0" stroke="none" 
	d="
M1045.000000,1646.000000 
	C696.666748,1646.000000 348.833527,1646.000000 1.000233,1646.000000 
	C1.000156,1097.666992 1.000156,549.333862 1.000078,1.000601 
	C549.332886,1.000401 1097.665771,1.000401 1645.999023,1.000200 
	C1645.999268,549.332703 1645.999268,1097.665405 1645.999634,1645.999023 
	C1445.833374,1646.000000 1245.666626,1646.000000 1045.000000,1646.000000 
M996.178467,1303.721924 
	C1016.576660,1294.800781 1037.569702,1287.022461 1057.273315,1276.766968 
	C1159.482544,1223.567993 1235.335205,1144.622070 1285.172852,1040.730835 
	C1289.518311,1031.672119 1293.348145,1022.365906 1297.677246,1012.588196 
	C1281.994263,1012.117188 1270.144409,1017.468506 1260.915161,1028.882568 
	C1243.909912,1049.913086 1225.226685,1069.334473 1204.714111,1086.980103 
	C1124.394531,1156.073608 1031.321533,1194.099365 925.635376,1200.735962 
	C878.659424,1203.685913 832.175293,1199.392578 786.430969,1187.981079 
	C707.240112,1168.225708 637.566223,1130.660767 578.531128,1074.398071 
	C533.617737,1031.593872 503.216339,979.521973 486.020386,919.847351 
	C484.069641,913.077759 482.475525,906.205444 480.515869,898.604248 
	C549.176758,898.604248 616.889099,898.604248 685.617371,898.604248 
	C684.754761,883.024231 684.910278,867.959656 682.928772,853.181580 
	C674.987732,793.958374 620.776794,747.012451 561.079529,747.005371 
	C415.097076,746.987976 269.114655,746.999634 123.132210,746.999634 
	C121.367065,746.999634 119.601921,746.999634 118.159599,746.999634 
	C118.159599,760.406128 117.089844,773.302307 118.339828,785.969543 
	C124.651085,849.927246 179.175629,898.800354 243.536240,898.842285 
	C266.866760,898.857483 290.197296,898.844727 313.527832,898.844727 
	C315.316284,898.844727 317.104706,898.844666 318.430542,898.844666 
	C346.081421,1056.143066 425.174469,1179.088135 562.066833,1260.924683 
	C698.891968,1342.721069 844.504578,1354.747070 996.178467,1303.721924 
M1055.042480,560.453796 
	C1112.441650,610.331116 1148.603149,672.846008 1166.407471,746.963623 
	C1098.219482,746.963623 1030.610840,746.963623 962.833191,746.963623 
	C962.833191,756.079102 962.783813,764.863708 962.841064,773.647705 
	C963.293579,843.075806 1019.293091,898.824707 1088.619751,898.831909 
	C1233.767456,898.846863 1378.915039,898.836487 1524.062744,898.836487 
	C1525.841309,898.836487 1527.619751,898.836426 1529.704834,898.836426 
	C1529.985352,877.997559 1530.651978,857.747253 1524.898926,837.911499 
	C1510.746338,789.115234 1468.659180,753.221985 1418.075806,748.020630 
	C1403.554321,746.527405 1388.802856,747.164246 1374.155151,747.030640 
	C1358.841675,746.890869 1343.526001,746.999390 1328.003418,746.999390 
	C1314.384155,659.929565 1281.099121,581.466980 1227.327515,511.940369 
	C1173.501343,442.343323 1106.118652,389.918915 1025.320312,355.032013 
	C944.535095,320.150848 860.104492,307.228760 772.686523,316.149994 
	C655.033447,328.156830 553.466797,375.790314 468.299103,457.723785 
	C416.610809,507.449158 377.555206,565.927490 350.469452,632.852722 
	C366.202637,633.938477 377.797943,628.050232 387.688049,616.981934 
	C401.768188,601.224365 415.498596,584.929565 431.160370,570.846008 
	C544.948730,468.524170 677.798523,428.753479 828.934570,453.082153 
	C914.186462,466.805359 989.073792,503.756042 1055.042480,560.453796 
z"/>
<path fill="#0385F2" opacity="1.000000" stroke="none" 
	d="
M995.803589,1303.832764 
	C844.504578,1354.747070 698.891968,1342.721069 562.066833,1260.924683 
	C425.174469,1179.088135 346.081421,1056.143066 318.430542,898.844666 
	C317.104706,898.844666 315.316284,898.844727 313.527832,898.844727 
	C290.197296,898.844727 266.866760,898.857483 243.536240,898.842285 
	C179.175629,898.800354 124.651085,849.927246 118.339828,785.969543 
	C117.089844,773.302307 118.159599,760.406128 118.159599,746.999634 
	C119.601921,746.999634 121.367065,746.999634 123.132210,746.999634 
	C269.114655,746.999634 415.097076,746.987976 561.079529,747.005371 
	C620.776794,747.012451 674.987732,793.958374 682.928772,853.181580 
	C684.910278,867.959656 684.754761,883.024231 685.617371,898.604248 
	C616.889099,898.604248 549.176758,898.604248 480.515869,898.604248 
	C482.475525,906.205444 484.069641,913.077759 486.020386,919.847351 
	C503.216339,979.521973 533.617737,1031.593872 578.531128,1074.398071 
	C637.566223,1130.660767 707.240112,1168.225708 786.430969,1187.981079 
	C832.175293,1199.392578 878.659424,1203.685913 925.635376,1200.735962 
	C1031.321533,1194.099365 1124.394531,1156.073608 1204.714111,1086.980103 
	C1225.226685,1069.334473 1243.909912,1049.913086 1260.915161,1028.882568 
	C1270.144409,1017.468506 1281.994263,1012.117188 1297.677246,1012.588196 
	C1293.348145,1022.365906 1289.518311,1031.672119 1285.172852,1040.730835 
	C1235.335205,1144.622070 1159.482544,1223.567993 1057.273315,1276.766968 
	C1037.569702,1287.022461 1016.576660,1294.800781 995.803589,1303.832764 
z"/>
<path fill="#121A23" opacity="1.000000" stroke="none" 
	d="
M1054.768555,560.227234 
	C989.073792,503.756042 914.186462,466.805359 828.934570,453.082153 
	C677.798523,428.753479 544.948730,468.524170 431.160370,570.846008 
	C415.498596,584.929565 401.768188,601.224365 387.688049,616.981934 
	C377.797943,628.050232 366.202637,633.938477 350.469452,632.852722 
	C377.555206,565.927490 416.610809,507.449158 468.299103,457.723785 
	C553.466797,375.790314 655.033447,328.156830 772.686523,316.149994 
	C860.104492,307.228760 944.535095,320.150848 1025.320312,355.032013 
	C1106.118652,389.918915 1173.501343,442.343323 1227.327515,511.940369 
	C1281.099121,581.466980 1314.384155,659.929565 1328.003418,746.999390 
	C1343.526001,746.999390 1358.841675,746.890869 1374.155151,747.030640 
	C1388.802856,747.164246 1403.554321,746.527405 1418.075806,748.020630 
	C1468.659180,753.221985 1510.746338,789.115234 1524.898926,837.911499 
	C1530.651978,857.747253 1529.985352,877.997559 1529.704834,898.836426 
	C1527.619751,898.836426 1525.841309,898.836487 1524.062744,898.836487 
	C1378.915039,898.836487 1233.767456,898.846863 1088.619751,898.831909 
	C1019.293091,898.824707 963.293579,843.075806 962.841064,773.647705 
	C962.783813,764.863708 962.833191,756.079102 962.833191,746.963623 
	C1030.610840,746.963623 1098.219482,746.963623 1166.407471,746.963623 
	C1148.603149,672.846008 1112.441650,610.331116 1054.768555,560.227234 
z"/>
</svg>