<?xml version="1.0" encoding="UTF-8"?>
<svg width="750px" height="530px" viewBox="0 0 750 530" version="1.1" xmlns="http://www.w3.org/2000/svg" xmlns:xlink="http://www.w3.org/1999/xlink">
    <title>编组 7</title>
    <defs>
        <linearGradient x1="50%" y1="0%" x2="50%" y2="100%" id="linearGradient-1">
            <stop stop-color="#FFFFFF" offset="0%"></stop>
            <stop stop-color="#FFFFFF" offset="100%"></stop>
        </linearGradient>
        <path d="M0,0 L750,0 L750,503.063187 C676.333333,521.021062 602.939637,530 529.818912,530 C372.498864,530 313,488.138736 219,488.138736 C146.695438,488.138736 73.6954381,502.092491 0,530 L0,0 Z" id="path-2"></path>
        <filter x="-22.0%" y="-30.2%" width="144.0%" height="160.4%" filterUnits="objectBoundingBox" id="filter-4">
            <feGaussianBlur stdDeviation="50" in="SourceGraphic"></feGaussianBlur>
        </filter>
        <filter x="-21.4%" y="-29.4%" width="142.8%" height="158.8%" filterUnits="objectBoundingBox" id="filter-5">
            <feGaussianBlur stdDeviation="50" in="SourceGraphic"></feGaussianBlur>
        </filter>
        <filter x="-12.2%" y="-16.7%" width="124.4%" height="133.5%" filterUnits="objectBoundingBox" id="filter-6">
            <feGaussianBlur stdDeviation="50" in="SourceGraphic"></feGaussianBlur>
        </filter>
    </defs>
    <g id="页面-1" stroke="none" stroke-width="1" fill="none" fill-rule="evenodd">
        <g id="6动态" transform="translate(0, -198)">
            <g id="椭圆形备份-+-椭圆形备份-3-+-椭圆形-蒙版" transform="translate(0, 198)">
                <mask id="mask-3" fill="white">
                    <use xlink:href="#path-2"></use>
                </mask>
                <use id="蒙版" fill="url(#linearGradient-1)" xlink:href="#path-2"></use>
                <ellipse id="椭圆形备份-3" fill="#DEDEFF" opacity="0.400000006" filter="url(#filter-4)" mask="url(#mask-3)" cx="654.18012" cy="446.408604" rx="341.18012" ry="248.386626"></ellipse>
                <ellipse id="椭圆形备份" fill="#B4D2FF" opacity="0.200000003" filter="url(#filter-5)" mask="url(#mask-3)" cx="18.4956181" cy="313.12148" rx="350.495618" ry="255.168513"></ellipse>
                <ellipse id="椭圆形" fill="#F0FBFB" opacity="0.699999988" filter="url(#filter-6)" mask="url(#mask-3)" cx="717.546125" cy="-151.720385" rx="615.59917" ry="448.169725"></ellipse>
            </g>
        </g>
    </g>
</svg>